<svg width="265" height="233" viewBox="0 0 265 233" fill="none" xmlns="http://www.w3.org/2000/svg">
<g clip-path="url(#clip0_2057_396)">
<path d="M255 0H10C4.47715 0 0 4.47715 0 10V223C0 228.523 4.47715 233 10 233H255C260.523 233 265 228.523 265 223V10C265 4.47715 260.523 0 255 0Z" fill="#364F6B"/>
<path d="M186.729 126.733C187.957 130.856 187.859 134.879 186.431 138.804C185.123 142.411 182.804 145.682 179.474 148.615C176.343 151.39 172.656 153.59 168.414 155.215C164.212 156.801 160.03 157.594 155.868 157.594C125.028 157.594 104.255 144.076 93.5547 117.04C91.6916 112.363 90.1654 107.329 88.9762 101.937C88.0644 97.6954 87.3212 92.0767 86.7464 85.0793C86.1716 78.082 85.8247 74.4652 85.7058 74.2277C81.9795 84.6531 80.1164 95.8719 80.1164 107.883H58.7694C58.2144 96.7834 55.499 84.1179 50.6231 69.887C50.4645 69.4906 50.3852 69.3122 50.3852 69.3518C50.3852 69.2726 49.8005 72.2258 48.6311 78.2117C47.4616 84.1977 46.9959 94.0879 47.2337 107.883H20L20.0595 107.704L20.1189 107.467L20.2378 107.229C20.3171 106.951 22.0019 99.172 25.292 83.8901C28.5822 68.6082 29.6922 47.3507 28.6219 20.1152H64.8934C63.3474 31.2146 64.9528 43.1464 69.7098 55.9111C75.1406 43.2261 77.5986 31.2938 77.0828 20.1152H111.749C109.49 50.6387 110.362 76.0287 114.366 96.2871C116.229 116.108 122.829 129.348 134.167 136.007C141.064 140.13 147.684 142.211 154.027 142.251C157.674 142.29 161.122 141.597 164.373 140.17C168.06 138.544 170.676 136.265 172.222 133.332C171.469 134.323 170.399 134.898 169.011 135.056C167.862 135.215 166.633 135.076 165.325 134.64C162.669 133.768 161.261 131.726 161.103 128.515C161.023 125.582 161.816 123.045 163.481 120.904C165.186 118.684 167.267 117.218 169.725 116.504C171.984 115.83 174.303 115.87 176.682 116.623C179.021 117.297 181.082 118.526 182.866 120.31C184.729 122.133 186.015 124.275 186.729 126.733ZM158.988 54.309C158.552 49.3935 158.315 44.2599 158.275 38.9084C163.032 38.6706 167.056 39.067 170.345 40.0976C174.428 41.4058 176.311 43.4869 175.994 46.3412C175.241 53.1199 169.573 55.7758 158.988 54.309ZM209.473 83.2671C208.641 84.5356 207.591 85.6654 206.322 86.6564C203.785 88.6781 201.387 89.0547 199.127 87.7862C197.898 87.1519 196.789 86.0816 195.798 84.5753C195.044 83.505 194.271 82.0977 193.479 80.3535C193.479 80.3139 193.201 79.6598 192.646 78.3913L191.1 74.8235L189.435 71.3153C188.444 69.2936 187.314 67.4503 186.046 65.7854C189.653 64.6358 192.111 63.7637 193.419 63.1691C197.066 61.5834 199.801 59.0662 201.625 55.6176C203.21 52.6842 204.003 49.4338 204.003 45.8657C204.003 45.0332 203.964 44.1809 203.884 43.3088C203.765 42.0799 203.567 40.8709 203.29 39.6817C202.576 36.4311 201.347 33.5374 199.603 31.0002C194.569 23.6667 185.907 20 173.618 20H131.757C136.078 49.3344 136.038 78.2328 131.638 106.693C131.599 106.892 131.559 107.07 131.519 107.229V107.407H166.721C163.946 95.9508 162.122 83.7608 161.25 70.8378L162.38 71.1946C166.067 72.7009 168.742 75.337 170.408 79.1028C171.042 80.5696 171.597 82.3137 172.073 84.3355L172.608 87.0707L173.083 89.7465L173.5 91.8277L173.916 93.9088C174.233 95.4549 174.57 96.8225 174.927 98.0117C175.878 100.985 177.147 103.403 178.732 105.266C183.014 110.38 188.346 112.501 194.728 111.628C197.78 111.192 200.535 110.043 202.993 108.18C205.451 106.277 207.353 103.859 208.701 100.925C209.137 99.8946 209.514 98.8045 209.831 97.6549C210.822 93.889 210.881 89.8057 210.009 85.4059L209.473 83.2671ZM242.205 106.695C240.342 108.598 238.102 109.549 235.486 109.549C232.83 109.549 230.571 108.598 228.707 106.695C226.844 104.792 225.913 102.493 225.913 99.7973C225.913 97.0621 226.844 94.7431 228.707 92.8402C230.571 90.9373 232.83 89.986 235.486 89.986C238.103 89.986 240.342 90.9374 242.205 92.8402C244.068 94.7429 245 97.0619 245 99.7973C245 102.493 244.068 104.792 242.205 106.695Z" fill="#FCE38A"/>
<path d="M21.2823 169.189V183.564C22.1771 181.934 23.6286 180.79 25.6368 180.134C27.7643 179.439 29.8026 179.598 31.7511 180.612C33.3616 181.467 34.0178 183.356 33.7196 186.278C33.4412 188.804 32.4868 191.945 30.8564 195.703C27.5757 203.179 23.9569 208.955 20 213.031H55.1647V203.219V193.406C54.4092 196.011 53.4647 198.049 52.3314 199.521C50.7805 201.529 48.9313 202.374 46.7839 202.056C44.2587 201.718 43.185 199.799 43.5628 196.299C43.861 193.456 45.0839 189.708 47.2313 185.056C48.8618 181.516 50.8104 177.868 53.0772 174.11C53.9322 172.698 54.6977 171.505 55.3737 170.531C55.9901 169.636 56.348 169.188 56.4474 169.188L21.2823 169.189ZM83.244 201.488C82.051 200.692 81.3053 199.658 81.007 198.386C80.7287 197.173 80.8778 196.01 81.4544 194.896C82.0509 193.743 82.9556 192.918 84.1685 192.421C84.4468 193.554 85.0533 194.489 85.9878 195.224C86.9223 195.98 87.9861 196.358 89.179 196.358C90.6106 196.358 91.8334 195.851 92.8475 194.837C93.8417 193.823 94.3388 192.61 94.3388 191.198C94.3388 190.104 94.0306 189.11 93.4142 188.215C92.778 187.182 91.575 186.396 89.8055 185.859C87.857 185.263 85.8786 185.253 83.8702 185.829C82.3392 186.267 80.8379 187.032 79.3667 188.126C79.7047 185.044 80.7485 182.479 82.4983 180.431C84.2679 178.363 86.3257 177.33 88.6722 177.33C90.3424 177.33 91.8933 177.886 93.3247 179C94.7166 180.073 95.84 181.525 96.6949 183.354C96.9932 179.974 97.4008 176.584 97.9178 173.184C98.0768 172.11 98.2458 171.106 98.4248 170.172C98.4646 169.873 98.5143 169.605 98.5739 169.366C98.5739 169.287 98.5839 169.207 98.6037 169.128V169.068H98.6336H65.8571C68.0244 177.339 68.7701 186.725 68.094 197.223C67.8753 200.782 67.4975 204.252 66.9607 207.632C66.7817 208.865 66.5829 210.018 66.3642 211.092C66.2051 211.927 66.056 212.573 65.9168 213.03H98.5161C97.1442 209.054 96.3687 203.983 96.1898 197.819C95.295 199.37 94.2114 200.583 92.9387 201.458C91.6065 202.373 90.1848 202.83 88.6736 202.83C86.4269 202.83 84.6159 202.382 83.244 201.488ZM128.265 169.127C128.782 175.828 130.273 181.883 132.738 187.291C133.235 186.575 133.743 185.293 134.259 183.444C134.697 181.813 135.055 179.974 135.333 177.926C135.671 175.341 135.87 172.408 135.93 169.127H153.586C152.015 181.256 152.065 192.192 153.735 201.934C154.252 204.977 154.908 207.731 155.704 210.196C155.843 210.634 155.982 211.041 156.121 211.419C156.221 211.737 156.33 212.035 156.449 212.314L156.569 212.612C156.589 212.691 156.619 212.771 156.658 212.851L156.688 212.91L156.718 212.97V213.03H141.716C142.253 208.397 142.223 203.694 141.626 198.922C141.448 197.352 141.219 195.95 140.94 194.717C140.821 194.24 140.722 193.862 140.642 193.584C140.563 193.345 140.513 193.246 140.493 193.285C140.513 193.246 140.483 193.345 140.404 193.584L140.344 193.792L140.254 194.031C140.175 194.25 140.105 194.458 140.046 194.657C139.847 195.254 139.658 195.85 139.479 196.447C139.24 197.242 139.022 198.047 138.823 198.863C138.266 200.99 137.819 203.108 137.481 205.215C137.043 207.9 136.775 210.504 136.675 213.03H127.131C127.131 205.931 125.859 199.26 123.314 193.017C122.161 198.266 121.842 203.128 122.359 207.602C122.519 209.013 122.767 210.316 123.105 211.509C123.145 211.708 123.195 211.906 123.254 212.105C123.314 212.264 123.364 212.423 123.403 212.582L123.463 212.761L123.523 212.881C123.542 212.96 123.552 213.01 123.552 213.03H107.954C111.175 203.227 112.766 194.588 112.726 187.112C112.726 184.328 112.487 181.266 112.01 177.926C111.891 176.952 111.682 175.53 111.384 173.661L111.056 171.513L110.728 169.127L128.265 169.127ZM177.014 199.072C175.761 196.964 175.135 194.3 175.135 191.079C175.135 188.474 175.682 186.058 176.775 183.831C178.088 181.127 179.529 179.656 181.1 179.417C181.995 179.278 182.879 179.527 183.754 180.163C184.57 180.779 185.265 181.644 185.842 182.758C186.518 184.05 187.045 185.452 187.423 186.963C187.761 188.335 187.93 189.707 187.93 191.079C187.93 194.3 187.304 196.965 186.051 199.072C184.838 201.12 183.337 202.144 181.547 202.144C179.738 202.144 178.227 201.12 177.014 199.072ZM193.776 174.823C192.086 172.557 190.077 170.817 187.751 169.604C185.246 168.292 182.68 167.785 180.056 168.083C175.543 168.58 171.377 171.563 167.559 177.03C164.418 181.504 162.847 186.366 162.847 191.615C162.847 198.097 164.646 203.456 168.245 207.691C171.785 211.826 176.149 213.894 181.338 213.894C186.528 213.894 190.882 211.827 194.402 207.691C198.001 203.456 199.8 198.097 199.8 191.615C199.8 188.831 199.313 186.058 198.339 183.294C197.265 180.252 195.744 177.428 193.776 174.823ZM228.656 169.066L228.656 169.096L228.686 169.186C228.706 169.285 228.725 169.394 228.745 169.514C228.825 169.892 228.904 170.299 228.984 170.737C229.262 172.168 229.521 173.669 229.759 175.24C230.515 180.271 230.962 185.102 231.102 189.735C229.133 189.974 227.135 189.795 225.107 189.198C224.331 188.98 223.566 188.691 222.81 188.333C222.214 188.055 221.637 187.747 221.08 187.409C221.259 183.034 221.707 178.67 222.422 174.316C222.641 172.964 222.88 171.681 223.138 170.468L223.258 169.872C223.297 169.713 223.327 169.563 223.347 169.424L223.407 169.275L223.437 169.156V169.096V169.066H207.122C209.29 177.895 210.035 187.448 209.359 197.728C209.14 201.208 208.763 204.578 208.226 207.839C208.047 209.012 207.848 210.116 207.629 211.15C207.47 211.925 207.321 212.551 207.182 213.029H224.123C222.651 208.535 221.697 203.564 221.259 198.116C224.779 199.906 228.01 200.303 230.952 199.309C230.535 204.757 229.551 209.33 228 213.029H244.91C244.791 212.551 244.652 211.925 244.493 211.15C244.274 210.116 244.065 209.012 243.867 207.839C243.35 204.578 242.972 201.208 242.733 197.728C242.077 187.449 242.833 177.895 245 169.066L228.656 169.066Z" fill="#FCE38A"/>
</g>
<defs>
<clipPath id="clip0_2057_396">
<rect width="265" height="233" fill="white"/>
</clipPath>
</defs>
</svg>
